<svg fill="#3c363f" xmlns="http://www.w3.org/2000/svg"  viewBox="0 0 64 64" width="128px" height="128px"><path d="M 8.9375 5 C 8.425781 5.011719 7.921875 5.152344 7.460938 5.429688 C 7.371094 5.480469 7.304688 5.558594 7.21875 5.617188 C 7.171875 5.65625 7.113281 5.675781 7.070313 5.722656 C 7.066406 5.730469 7.0625 5.738281 7.054688 5.746094 C 6.398438 6.308594 6 7.113281 6 8.003906 L 6 55.296875 C 6 56.367188 6.546875 57.328125 7.460938 57.875 C 7.941406 58.15625 8.46875 58.300781 9 58.300781 C 9.484375 58.300781 9.976563 58.179688 10.425781 57.9375 L 54.21875 34.292969 C 55.1875 33.769531 55.792969 32.753906 55.792969 31.652344 C 55.792969 30.546875 55.1875 29.535156 54.21875 29.011719 L 10.425781 5.367188 C 9.957031 5.109375 9.445313 4.988281 8.9375 5 Z M 10.683594 7.773438 L 40.890625 24.089844 L 8.015625 55.378906 C 8.011719 55.351563 8 55.332031 8 55.296875 L 8 8.003906 C 8 7.996094 8.003906 7.996094 8.003906 7.988281 L 25.5625 24.703125 C 25.757813 24.886719 26.007813 24.976563 26.253906 24.976563 C 26.519531 24.976563 26.78125 24.871094 26.976563 24.667969 C 27.359375 24.265625 27.339844 23.632813 26.941406 23.25 Z M 11 15.652344 C 10.449219 15.652344 10 16.097656 10 16.652344 C 10 17.207031 10.449219 17.652344 11 17.652344 L 13 17.652344 C 13.550781 17.652344 14 17.207031 14 16.652344 C 14 16.097656 13.550781 15.652344 13 15.652344 Z M 11 20.652344 C 10.449219 20.652344 10 21.097656 10 21.652344 C 10 22.207031 10.449219 22.652344 11 22.652344 L 13 22.652344 C 13.550781 22.652344 14 22.207031 14 21.652344 C 14 21.097656 13.550781 20.652344 13 20.652344 Z M 42.738281 25.089844 L 53.265625 30.769531 C 53.738281 31.027344 53.789063 31.472656 53.789063 31.652344 C 53.789063 31.832031 53.738281 32.273438 53.265625 32.53125 L 42.6875 38.242188 L 37.269531 33.085938 C 36.871094 32.707031 36.238281 32.71875 35.859375 33.121094 C 35.476563 33.519531 35.492188 34.152344 35.890625 34.53125 L 40.839844 39.242188 L 10.867188 55.425781 Z M 11 25.652344 C 10.449219 25.652344 10 26.097656 10 26.652344 C 10 27.207031 10.449219 27.652344 11 27.652344 L 13 27.652344 C 13.550781 27.652344 14 27.207031 14 26.652344 C 14 26.097656 13.550781 25.652344 13 25.652344 Z M 29.542969 26.132813 C 29.285156 26.140625 29.03125 26.242188 28.839844 26.441406 C 28.460938 26.839844 28.476563 27.472656 28.875 27.855469 L 31.140625 30.015625 C 31.335938 30.199219 31.582031 30.285156 31.828125 30.285156 C 32.09375 30.285156 32.359375 30.183594 32.558594 29.976563 C 32.9375 29.578125 32.921875 28.945313 32.519531 28.5625 L 30.253906 26.40625 C 30.054688 26.214844 29.796875 26.125 29.542969 26.132813 Z M 11 30.652344 C 10.449219 30.652344 10 31.097656 10 31.652344 C 10 32.207031 10.449219 32.652344 11 32.652344 L 13 32.652344 C 13.550781 32.652344 14 32.207031 14 31.652344 C 14 31.097656 13.550781 30.652344 13 30.652344 Z M 11 35.652344 C 10.449219 35.652344 10 36.097656 10 36.652344 C 10 37.207031 10.449219 37.652344 11 37.652344 L 13 37.652344 C 13.550781 37.652344 14 37.207031 14 36.652344 C 14 36.097656 13.550781 35.652344 13 35.652344 Z M 11 40.652344 C 10.449219 40.652344 10 41.097656 10 41.652344 C 10 42.207031 10.449219 42.652344 11 42.652344 L 13 42.652344 C 13.550781 42.652344 14 42.207031 14 41.652344 C 14 41.097656 13.550781 40.652344 13 40.652344 Z M 11 45.652344 C 10.449219 45.652344 10 46.097656 10 46.652344 C 10 47.207031 10.449219 47.652344 11 47.652344 L 13 47.652344 C 13.550781 47.652344 14 47.207031 14 46.652344 C 14 46.097656 13.550781 45.652344 13 45.652344 Z"/></svg>
