<svg id="Layer_1" data-name="Layer 1" xmlns="http://www.w3.org/2000/svg" viewBox="0 0 619 206.35"><title>Wave v1</title><path d="M614,134c-9.56-1.08-19.11-2.19-28.68-3.23-11.55-1.26-23.08-3-34.66-3.57-22.6-1.07-45.25-2.27-67.85-1.89-30.08.5-60.17,2-90.2,3.92-27.17,1.72-54.28,4.51-81.41,6.88-22.17,1.94-44.31,4.14-66.49,5.9-19.88,1.59-39.77,3.26-59.68,4-29.77,1.05-59.61,2.53-89.34,1.54-28.65-.94-57.21-4.77-85.81-7.36-3.3-.3-6.59-.77-9.88-1.16V90c9.56,1.08,19.11,2.2,28.68,3.23,11.88,1.28,23.74,3,35.66,3.6,22.6,1.06,45.24,2.09,67.85,1.89,25.1-.22,50.21-1.43,75.28-2.94,24.36-1.48,48.68-3.74,73-5.9,27.29-2.43,54.54-5.3,81.83-7.67,16.22-1.4,32.51-2,48.74-3.32,35.55-2.84,71.19-4,106.77-2.5,28.82,1.25,57.54,4.85,86.31,7.44,3.3.3,6.59.78,9.88,1.17Z" style="fill:#70d0f6"/></svg>