<svg id="Layer_1" data-name="Layer 1" xmlns="http://www.w3.org/2000/svg" viewBox="0 0 614 75.58"><title>wavepurp</title><path d="M614,60.29c-9.56-1.08-19.11-2.19-28.68-3.23-11.55-1.26-23.08-3-34.66-3.57-22.6-1.07-45.25-2.27-67.85-1.89-30.08.5-60.17,2-90.2,3.92C365.44,57.24,338.33,60,311.2,62.4c-22.17,1.94-44.31,4.13-66.49,5.9-19.88,1.59-39.77,3.26-59.68,4-29.77,1.06-59.61,2.53-89.34,1.55C67,72.87,38.48,69,9.88,66.45c-3.3-.3-6.59-.77-9.88-1.16v-49c9.56,1.08,19.11,2.2,28.68,3.22,11.88,1.28,23.74,3,35.66,3.61,22.6,1.06,45.24,2.09,67.85,1.89,25.1-.22,50.21-1.43,75.28-3,24.36-1.47,48.68-3.73,73-5.89,27.29-2.43,54.54-5.3,81.83-7.67,16.22-1.41,32.51-2,48.74-3.32,35.55-2.84,71.19-4,106.77-2.5,28.82,1.25,57.54,4.85,86.31,7.44,3.3.29,6.59.77,9.88,1.17Z" style="fill:#877fbc"/></svg>